P2
31 18
255
 88 118 127 123 121 121 121 121 121 121 121 121 121 122 122 122 122 122 122 121 121 121 121 121 121 121 122 122 122 109  79 
115 156 170 167 166 166 165 165 165 165 166 166 166 167 167 167 167 167 167 167 166 166 166 167 167 167 167 167 167 150 110 
125 170 189 188 187 187 187 187 187 187 187 187 188 188 188 189 189 188 188 188 188 188 188 188 188 189 189 189 189 169 124 
123 168 189 189 189 189 189 189 189 189 189 189 189 189 190 190 190 190 190 190 189 189 189 190 190 190 190 190 190 170 124 
124 170 190 191 191 191 191 190 190 190 191 191 191 191 191 192 192 192 192 191 191 190 190 191 191 191 191 191 191 171 125 
125 171 192 192 191 191 191 191 191 191 191 192 192 192 192 192 192 192 192 192 192 191 191 191 192 191 191 191 191 171 125 
126 172 192 192 192 192 192 192 192 191 192 192 192 192 192 192 192 192 192 192 192 192 192 192 192 192 192 192 192 171 125 
126 172 192 192 192 192 192 192 192 192 192 192 192 192 192 192 192 193 192 192 192 192 192 192 192 192 192 192 192 171 125 
125 171 191 191 190 190 191 191 190 190 190 190 191 191 191 191 191 191 191 190 190 190 190 190 190 190 190 190 190 169 124 
124 168 188 187 187 187 187 187 187 186 186 186 187 187 187 187 187 187 187 186 186 186 186 186 186 186 186 186 186 166 121 
121 164 183 182 181 181 182 182 181 181 181 181 181 182 182 182 181 181 181 181 181 181 181 181 181 181 180 180 181 161 118 
117 160 178 177 177 177 177 178 177 177 176 176 177 177 177 177 176 176 176 176 177 177 177 177 177 176 176 176 176 158 115 
115 156 175 174 174 175 175 175 175 174 174 174 174 174 173 174 173 173 173 173 174 174 174 174 174 173 173 174 174 155 113 
113 155 173 173 173 174 174 174 174 174 173 173 173 173 173 173 173 173 172 172 173 173 173 173 173 173 172 173 173 154 113 
112 154 173 173 173 173 173 173 173 173 173 172 172 172 172 173 173 172 172 172 172 172 173 173 173 173 173 173 173 154 112 
112 154 173 173 173 173 173 173 173 172 172 172 172 172 172 173 173 172 172 172 172 172 172 173 173 173 174 174 174 155 114 
101 138 154 154 154 154 154 154 154 153 153 153 153 153 154 154 154 154 154 154 153 153 154 154 155 156 156 157 157 141 103 
 74 101 113 113 113 113 113 113 113 112 112 112 112 112 112 112 112 112 112 112 112 112 112 113 113 114 115 115 116 104  76 
