P2
2 300
255
 23  19 
 19  14 
  7   6 
  0   0 
  0   0 
  0   0 
  0   0 
  0   0 
  0   0 
  0   0 
  0   0 
  0   0 
  0   0 
  0   0 
  0   0 
  0   0 
  0   0 
  0   0 
  0   0 
  0   0 
  0   0 
  0   0 
  0   0 
  0   0 
  0   0 
  0   0 
  0   0 
  0   0 
  0   0 
  0   0 
  0   0 
  0   0 
  0   0 
  0   0 
  0   0 
  0   0 
  0   0 
  0   0 
  0   0 
  0   0 
  0   0 
  0   0 
  0   0 
  0   0 
  0   0 
  0   0 
  0   0 
  0   0 
  0   0 
  0   0 
  0   0 
  0   0 
  0   0 
  0   0 
  0   0 
  0   0 
  0   0 
  0   0 
  0   0 
  0   0 
  0   0 
  0   0 
  0   0 
  0   0 
  0   0 
  0   0 
  0   0 
  0   0 
  0   0 
  0   0 
  0   0 
  0   0 
  0   0 
  0   0 
  0   0 
  0   0 
  0   0 
  0   0 
  0   0 
  0   0 
  0   0 
  0   0 
  0   0 
  0   0 
  0   0 
  0   0 
  0   0 
  0   0 
  0   0 
  0   0 
  0   0 
  0   0 
  0   0 
  0   0 
  0   0 
  0   0 
  0   0 
  0   0 
  0   0 
  0   0 
  0   0 
  0   0 
  0   0 
  0   0 
  0   0 
  0   0 
  0   0 
  0   0 
  0   0 
  0   0 
  0   0 
  0   0 
  0   0 
  0   0 
  0   0 
  0   0 
  0   0 
  0   0 
  0   0 
  0   0 
  0   0 
  0   0 
  0   0 
  0   0 
  0   0 
  0   0 
  0   0 
  0   0 
  0   0 
  0   0 
  0   0 
  0   0 
  0   0 
  0   0 
  0   0 
  0   0 
  0   0 
  0   0 
  0   0 
  0   0 
  0   0 
  0   0 
  0   0 
  0   0 
  0   0 
  0   0 
  0   0 
  0   0 
  3   3 
 10  13 
 19  25 
 27  35 
 30  39 
 30  39 
 30  39 
 30  39 
 30  39 
 30  39 
 30  39 
 30  39 
 30  39 
 30  39 
 30  39 
 30  39 
 30  39 
 30  39 
 30  39 
 30  39 
 30  39 
 30  39 
 30  39 
 30  39 
 30  39 
 30  39 
 30  39 
 30  39 
 30  39 
 30  39 
 30  39 
 30  39 
 30  39 
 30  39 
 30  39 
 30  39 
 30  39 
 30  39 
 30  39 
 30  39 
 30  39 
 30  39 
 30  39 
 30  39 
 30  39 
 30  39 
 30  39 
 30  39 
 30  39 
 30  39 
 30  39 
 30  39 
 30  39 
 30  39 
 30  39 
 30  39 
 30  39 
 30  39 
 30  39 
 30  39 
 30  39 
 30  39 
 30  39 
 30  39 
 30  39 
 30  39 
 30  39 
 30  39 
 30  39 
 30  39 
 30  39 
 30  39 
 30  39 
 30  39 
 30  39 
 30  39 
 30  39 
 30  39 
 30  39 
 30  39 
 30  39 
 30  39 
 30  39 
 30  39 
 30  39 
 30  39 
 30  39 
 30  39 
 30  39 
 30  39 
 30  39 
 30  39 
 30  39 
 30  39 
 30  39 
 30  39 
 30  39 
 30  39 
 30  39 
 30  39 
 30  39 
 30  39 
 30  39 
 30  39 
 30  39 
 30  39 
 30  39 
 30  39 
 30  39 
 30  39 
 30  39 
 30  39 
 30  39 
 30  39 
 30  39 
 30  39 
 30  39 
 30  39 
 30  39 
 30  39 
 30  39 
 30  39 
 30  39 
 30  39 
 30  39 
 30  39 
 30  39 
 30  39 
 30  39 
 30  39 
 30  39 
 30  39 
 30  39 
 30  39 
 30  39 
 30  39 
 30  39 
 30  39 
 30  39 
 30  39 
 30  39 
 30  39 
 30  39 
 30  39 
 30  39 
 30  39 
 30  39 
 30  39 
 30  39 
 30  39 
 27  35 
 19  25 
