P2
2 300
255
 80   1 
144  73 
 16   2 
  0   0 
  0 139 
145  73 
 16   2 
  0   0 
  0   0 
  0   0 
  0   0 
  0   0 
  0   0 
  0   0 
  0   0 
  0   0 
 38 245 
  2   7 
  8   8 
  8   8 
  8   8 
  9  10 
  9   9 
 11  11 
  9   9 
 11  12 
 12  12 
 12  13 
 14  13 
 12  13 
 65   0 
  0 254 
 99  86 
 91  93 
 95  96 
 96  95 
 93  92 
 91  90 
 91  92 
 92  92 
 92  92 
 92  92 
 92  92 
 92  92 
 92  92 
117   8 
  0   0 
  6  81 
 11  15 
 16  15 
 13  12 
 13  15 
 15  13 
 12  12 
 12  13 
 15  15 
 13  11 
  9   9 
 11  11 
  9   8 
  8  80 
  7   0 
  0   9 
 84  11 
  9   8 
  8   8 
  8   8 
  9  11 
 12  11 
  9   8 
  8   8 
  8   9 
 10   9 
  7   7 
  6   5 
  4   4 
 80   8 
  0   0 
 10  83 
  5   4 
  4   5 
  7   7 
  5   5 
  4   4 
  4   3 
  1   0 
  0   1 
  3   5 
  7   7 
  5   4 
  4   4 
  4  81 
  9   0 
  0   9 
 81   1 
  3   4 
  4   4 
  4   4 
  4   1 
  0   0 
  0   0 
  1   2 
  1   0 
  1   3 
  4   3 
  2   3 
  4   4 
 83  11 
  0   0 
  8  80 
  5   7 
  7   5 
  5   6 
  6   7 
  7   5 
  4   4 
  4   4 
  4   5 
  7   8 
  8   8 
  8   8 
  8   8 
  8  84 
 11   0 
  0   6 
 80  19 
 20  20 
 20  20 
 21  23 
 24  23 
 21  20 
 20  20 
 21  22 
 22  23 
 24  24 
 24  24 
 24  24 
 24  24 
 86   8 
  0   0 
  1  82 
 35  36 
 36  36 
 36  36 
 36  36 
 37  38 
 37  36 
 37  39 
 40  39 
 37  36 
 36  36 
 36  36 
 37  39 
 39  87 
  4   0 
  0 251 
 81  40 
 40  40 
 39  38 
 38  38 
 39  40 
 40  40 
 40  41 
 43  44 
 43  40 
 37  36 
 36  36 
 37  39 
 40  40 
 84 254 
  0   0 
245  76 
 31  28 
 26  27 
 27  26 
 27  28 
 28  29 
 32  34 
 33  32 
 32  32 
 31  29 
 28  28 
 28  29 
 30  28 
 26  78 
247   0 
  0 241 
 73  17 
 15  13 
 13  14 
 13  12 
 12  13 
 15  16 
 16  15 
 13  13 
 15  16 
 16  16 
 16  16 
 15  14 
 14  13 
 76 243 
  0   0 
241  73 
  5   5 
  7   8 
  8   7 
  5   5 
  7   8 
  7   5 
  3   2 
  4   4 
  5   7 
  7   5 
  4   3 
  3   1 
  4  76 
242   0 
  0 243 
 75   0 
  1   3 
  4   4 
  5   6 
  5   4 
  4   4 
  4   3 
  3   4 
  1   1 
  3   4 
  4   1 
  0   2 
  5   5 
 76 242 
  0   0 
244 103 
 76  76 
 76  76 
 76  77 
 79  79 
 77  76 
 75  74 
 75  75 
 73  72 
 73  75 
 76  76 
 75  72 
 69  67 
 65  95 
240   0 
  0  33 
241 240 
240 240 
240 240 
240 240 
240 240 
240 240 
241 243 
243 241 
240 240 
240 240 
240 240 
239 237 
236 235 
234  31 
 64 121 
 88 101 
159 138 
 79  46 
 88 174 
250  11 
 29  38 
214 139 
142 173 
208 217 
212 216 
212 196 
185 183 
191 235 
 13  12 
 22  29 
255 255 
255 255 
255 255 
255 255 
255 255 
 29 156 
  0 129 
 49 225 
  1   0 
224 138 
209  73 
 16   2 
  0   0 
208 198 
199  73 
 16   2 
  0   0 
255 255 
255 255 
255 255 
255 255 
